<svg xmlns="http://www.w3.org/2000/svg" viewBox="0 0 80 80" width="480px" height="480px"><path fill="#e1ebf2" d="M8,65.5c-3.032,0-5.5-2.467-5.5-5.5V20c0-3.033,2.468-5.5,5.5-5.5h64c3.032,0,5.5,2.467,5.5,5.5v40 c0,3.033-2.468,5.5-5.5,5.5H8z"/><path fill="#788b9c" d="M72,15c2.757,0,5,2.243,5,5v40c0,2.757-2.243,5-5,5H8c-2.757,0-5-2.243-5-5V20c0-2.757,2.243-5,5-5 H72 M72,14H8c-3.314,0-6,2.686-6,6v40c0,3.314,2.686,6,6,6h64c3.314,0,6-2.686,6-6V20C78,16.686,75.314,14,72,14L72,14z"/><path fill="#8bb7f0" d="M28,57.5c-9.649,0-17.5-7.851-17.5-17.5S18.351,22.5,28,22.5h24c9.649,0,17.5,7.851,17.5,17.5 S61.649,57.5,52,57.5H28z"/><path fill="#4e7ab5" d="M52,23c9.374,0,17,7.626,17,17s-7.626,17-17,17H28c-9.374,0-17-7.626-17-17s7.626-17,17-17H52 M52,22c-4.617,0-19.383,0-24,0c-9.941,0-18,8.059-18,18c0,9.941,8.059,18,18,18c4.617,0,19.383,0,24,0c9.941,0,18-8.059,18-18 C70,30.059,61.941,22,52,22L52,22z"/><path fill="#fff" d="M28,26c-7.7,0-14,6.3-14,14s6.3,14,14,14s14-6.3,14-14S35.7,26,28,26z M18.667,40 c0-4.433,3.033-7.933,7-9.1v17.967C21.7,47.933,18.667,44.433,18.667,40z M30.333,49.1V31.133c3.967,0.933,7,4.667,7,9.1 C37.333,44.433,34.3,47.933,30.333,49.1z"/></svg>