<?xml version="1.0" encoding="utf-8"?>
<!-- Generator: Adobe Illustrator 23.1.1, SVG Export Plug-In . SVG Version: 6.00 Build 0)  -->
<svg version="1.0"
	 id="レイヤー_1" xmlns:cc="http://creativecommons.org/ns#" xmlns:dc="http://purl.org/dc/elements/1.1/" xmlns:rdf="http://www.w3.org/1999/02/22-rdf-syntax-ns#" xmlns:svg="http://www.w3.org/2000/svg"
	 xmlns="http://www.w3.org/2000/svg" xmlns:xlink="http://www.w3.org/1999/xlink" x="0px" y="0px" viewBox="0 0 300 231.5"
	 style="enable-background:new 0 0 300 231.5;" xml:space="preserve">
<style type="text/css">
	.st0{fill:#FFFFFF;}
	.st1{fill:url(#path6338_1_);}
	.st2{fill:url(#path6349_1_);}
	.st3{fill:url(#path6360_1_);}
	.st4{fill:url(#path6371_1_);}
	.st5{fill:url(#path6384_1_);}
</style>
<g id="g6321" transform="translate(-9.4000001,96.810998)">
	<g id="g6323" transform="matrix(1.8215159,0,0,1.8215159,-8.5437653,-109.83667)">
		<path id="path6325" class="st0" d="M161.9,102.7c0,11.9-9.7,21.6-21.6,21.6H22.5V38.7c0-11.9,9.7-21.6,21.6-21.6h117.7V102.7
			L161.9,102.7z"/>
		<g id="g6327">
			
				<linearGradient id="path6338_1_" gradientUnits="userSpaceOnUse" x1="-72.7622" y1="163.9607" x2="-38.7352" y2="163.9607" gradientTransform="matrix(2.0492 0 0 -2.0492 265.0572 412.6521)">
				<stop  offset="0" style="stop-color:#007940"/>
				<stop  offset="0.2285" style="stop-color:#00873F"/>
				<stop  offset="0.7433" style="stop-color:#40A737"/>
				<stop  offset="1" style="stop-color:#5CB531"/>
			</linearGradient>
			<path id="path6338" class="st1" d="M123.5,80.8h8.9c0.3,0,0.9-0.1,1.1-0.1c1.7-0.3,3.2-1.9,3.2-4c0-2-1.4-3.6-3.2-4
				c-0.3-0.1-0.8-0.1-1.1-0.1h-8.9V80.8L123.5,80.8z"/>
			
				<linearGradient id="path6349_1_" gradientUnits="userSpaceOnUse" x1="-72.7627" y1="166.8498" x2="-38.7641" y2="166.8498" gradientTransform="matrix(2.0492 0 0 -2.0492 265.0572 412.6521)">
				<stop  offset="0" style="stop-color:#007940"/>
				<stop  offset="0.2285" style="stop-color:#00873F"/>
				<stop  offset="0.7433" style="stop-color:#40A737"/>
				<stop  offset="1" style="stop-color:#5CB531"/>
			</linearGradient>
			<path id="path6349" class="st2" d="M131.5,24.3c-8.5,0-15.5,6.9-15.5,15.5v16.1h21.9c0.5,0,1.1,0,1.5,0.1
				c4.9,0.3,8.6,2.8,8.6,7.2c0,3.5-2.5,6.5-7.1,7.1v0.2c5,0.3,8.9,3.2,8.9,7.5c0,4.7-4.3,7.8-9.9,7.8h-24v31.5h22.7
				c8.5,0,15.5-6.9,15.5-15.5V24.3L131.5,24.3L131.5,24.3z"/>
			
				<linearGradient id="path6360_1_" gradientUnits="userSpaceOnUse" x1="-72.7626" y1="170.0299" x2="-38.7343" y2="170.0299" gradientTransform="matrix(2.0492 0 0 -2.0492 265.0572 412.6521)">
				<stop  offset="0" style="stop-color:#007940"/>
				<stop  offset="0.2285" style="stop-color:#00873F"/>
				<stop  offset="0.7433" style="stop-color:#40A737"/>
				<stop  offset="1" style="stop-color:#5CB531"/>
			</linearGradient>
			<path id="path6360" class="st3" d="M135.6,64.2c0-2-1.4-3.4-3.2-3.7c-0.2,0-0.6-0.1-0.9-0.1h-8.1V68h8.1c0.3,0,0.8,0,0.9-0.1
				C134.2,67.6,135.6,66.3,135.6,64.2z"/>
		</g>
		
			<linearGradient id="path6371_1_" gradientUnits="userSpaceOnUse" x1="-114.5836" y1="166.8706" x2="-80.0299" y2="166.8706" gradientTransform="matrix(2.0492 0 0 -2.0492 265.0572 412.6521)">
			<stop  offset="0" style="stop-color:#1F286F"/>
			<stop  offset="0.4751" style="stop-color:#004E94"/>
			<stop  offset="0.8261" style="stop-color:#0066B1"/>
			<stop  offset="1" style="stop-color:#006FBC"/>
		</linearGradient>
		<path id="path6371" class="st4" d="M45.8,24.3c-8.5,0-15.5,6.9-15.5,15.5V78c4.3,2.1,8.9,3.5,13.4,3.5c5.4,0,8.3-3.2,8.3-7.7V55.8
			h13.3v18c0,7-4.3,12.7-19.1,12.7c-8.9,0-15.9-2-15.9-2v32.6h22.7c8.5,0,15.5-6.9,15.5-15.5V24.3C68.4,24.3,45.8,24.3,45.8,24.3z"
			/>
		
			<linearGradient id="path6384_1_" gradientUnits="userSpaceOnUse" x1="-93.7725" y1="166.829" x2="-60.2128" y2="166.829" gradientTransform="matrix(2.0492 0 0 -2.0492 265.0572 412.6521)">
			<stop  offset="0" style="stop-color:#6C2C2F"/>
			<stop  offset="0.1735" style="stop-color:#882730"/>
			<stop  offset="0.5731" style="stop-color:#BE1833"/>
			<stop  offset="0.8585" style="stop-color:#DC0436"/>
			<stop  offset="1" style="stop-color:#E60039"/>
		</linearGradient>
		<path id="path6384" class="st5" d="M88.6,24.3c-8.5,0-15.5,6.9-15.5,15.5v20.3c3.9-3.3,10.7-5.5,21.7-4.9
			C100.7,55.4,107,57,107,57v6.6c-3.2-1.6-6.9-3.1-11.8-3.4c-8.3-0.6-13.4,3.5-13.4,10.6c0,7.2,5,11.3,13.4,10.6
			c4.9-0.3,8.6-1.9,11.8-3.4v6.6c0,0-6.2,1.6-12.2,1.9c-11,0.5-17.8-1.6-21.7-4.9v35.8h22.7c8.5,0,15.5-6.9,15.5-15.5V24.3
			C111.4,24.3,88.6,24.3,88.6,24.3z"/>
	</g>
	<g id="g6386">
	</g>
</g>
</svg>
